<svg width="783" height="784" viewBox="0 0 783 784" fill="none" xmlns="http://www.w3.org/2000/svg">
<path fill-rule="evenodd" clip-rule="evenodd" d="M646.502 94.4831C669.698 94.4831 688.502 113.287 688.502 136.483V646.696C688.502 669.897 669.69 688.703 646.489 688.696L136.512 688.543C113.316 688.536 94.5178 669.726 94.5248 646.53L94.6779 136.47C94.6849 113.279 113.487 94.4831 136.678 94.4831H646.502ZM0.220247 51.8328L0.0150146 735.482C0.014517 735.569 0.0142548 735.656 0.0142286 735.743C0.00835428 755.311 11.9006 772.104 28.8542 779.281C34.5054 781.673 40.7189 782.997 47.2416 782.999C47.2418 782.999 47.2421 782.999 47.2423 782.999L735.743 783.206C761.834 783.213 782.991 762.069 782.999 735.978C782.999 735.583 782.994 735.189 782.985 734.795V47.2416C782.985 46.8339 782.98 46.4274 782.969 46.0223C782.733 36.7028 779.798 28.054 774.917 20.8284C766.427 8.26201 752.05 0 735.743 0L735.706 1.41077e-05H47.2415C21.1508 1.41077e-05 0 21.1508 0 47.2416C0 48.7905 0.0745463 50.322 0.220247 51.8328Z" fill="black"/>
</svg>
