<svg width="848" height="848" viewBox="0 0 848 848" fill="none" xmlns="http://www.w3.org/2000/svg">
<path fill-rule="evenodd" clip-rule="evenodd" d="M596.137 213.099C617.526 213.099 634.865 230.434 634.865 251.817V722.158C634.865 743.546 617.518 760.882 596.125 760.876L125.877 760.735C104.488 760.728 87.1545 743.388 87.1609 722.005L87.3021 251.805C87.3085 230.426 104.646 213.099 126.03 213.099H596.137ZM0.203089 173.782L0.0138449 804.006C0.0133861 804.086 0.0131443 804.166 0.0131201 804.246C0.00770345 822.285 10.9735 837.766 26.6063 844.382C31.8173 846.587 37.5467 847.807 43.5613 847.809C43.5611 847.809 43.5615 847.809 43.5613 847.809L678.425 848C702.484 848.006 721.993 828.515 722 804.463C722 804.099 721.995 803.735 721.987 803.372V169.55C721.987 169.174 721.982 168.799 721.972 168.426C721.755 159.835 719.048 151.862 714.548 145.201C706.719 133.616 693.462 126 678.425 126L678.391 126H43.5612C19.5031 126 0 145.498 0 169.55C0 170.978 0.0687388 172.389 0.203089 173.782Z" fill="black"/>
<path fill-rule="evenodd" clip-rule="evenodd" d="M722.137 87.0996C743.525 87.0996 760.864 104.434 760.864 125.817V596.158C760.864 617.546 743.519 634.882 722.125 634.876H721.987V721.975L804.426 722C828.483 722.006 847.992 702.515 848 678.463C848 678.099 847.995 677.735 847.987 677.372V43.5498C847.987 43.1738 847.982 42.7993 847.973 42.4258C847.755 33.8345 845.049 25.8618 840.548 19.2007C832.719 7.61621 819.462 0 804.426 0H804.392H169.562C145.503 0 126 19.498 126 43.5498C126 44.9775 126.068 46.3896 126.203 47.7822L126.18 126H213.302V125.805C213.309 104.426 230.646 87.0996 252.03 87.0996H722.137Z" fill="black"/>
</svg>
